<mxfile host="Electron" agent="Mozilla/5.0 (Windows NT 10.0; Win64; x64) AppleWebKit/537.36 (KHTML, like Gecko) draw.io/26.0.7 Chrome/128.0.6613.186 Electron/32.2.5 Safari/537.36" version="26.0.7">
  <diagram name="Page-1" id="VREdMeLgjQNroC5pnP_n">
    <mxGraphModel dx="1221" dy="823" grid="1" gridSize="10" guides="1" tooltips="1" connect="1" arrows="1" fold="1" page="1" pageScale="1" pageWidth="827" pageHeight="1169" math="0" shadow="0">
      <root>
        <mxCell id="0" />
        <mxCell id="1" parent="0" />
        <mxCell id="RN7CYTBWNOi0pQPH-gGi-1" value="" style="shape=actor;whiteSpace=wrap;html=1;" vertex="1" parent="1">
          <mxGeometry x="70" y="380" width="40" height="60" as="geometry" />
        </mxCell>
        <mxCell id="RN7CYTBWNOi0pQPH-gGi-10" style="edgeStyle=orthogonalEdgeStyle;rounded=0;orthogonalLoop=1;jettySize=auto;html=1;" edge="1" parent="1" source="RN7CYTBWNOi0pQPH-gGi-2">
          <mxGeometry relative="1" as="geometry">
            <mxPoint x="110" y="410" as="targetPoint" />
          </mxGeometry>
        </mxCell>
        <mxCell id="RN7CYTBWNOi0pQPH-gGi-2" value="Flask Server" style="sketch=0;aspect=fixed;pointerEvents=1;shadow=0;dashed=0;html=1;strokeColor=none;labelPosition=center;verticalLabelPosition=bottom;verticalAlign=top;align=center;fillColor=#00188D;shape=mxgraph.mscae.enterprise.web_server" vertex="1" parent="1">
          <mxGeometry x="220" y="385" width="38" height="50" as="geometry" />
        </mxCell>
        <mxCell id="RN7CYTBWNOi0pQPH-gGi-13" style="edgeStyle=orthogonalEdgeStyle;rounded=0;orthogonalLoop=1;jettySize=auto;html=1;entryX=0;entryY=0.5;entryDx=0;entryDy=0;" edge="1" parent="1" source="RN7CYTBWNOi0pQPH-gGi-3" target="RN7CYTBWNOi0pQPH-gGi-4">
          <mxGeometry relative="1" as="geometry" />
        </mxCell>
        <mxCell id="RN7CYTBWNOi0pQPH-gGi-3" value="URL" style="rounded=1;whiteSpace=wrap;html=1;" vertex="1" parent="1">
          <mxGeometry x="190" y="500" width="120" height="60" as="geometry" />
        </mxCell>
        <mxCell id="RN7CYTBWNOi0pQPH-gGi-14" style="edgeStyle=orthogonalEdgeStyle;rounded=0;orthogonalLoop=1;jettySize=auto;html=1;entryX=1;entryY=0.5;entryDx=0;entryDy=0;" edge="1" parent="1" source="RN7CYTBWNOi0pQPH-gGi-4" target="RN7CYTBWNOi0pQPH-gGi-3">
          <mxGeometry relative="1" as="geometry" />
        </mxCell>
        <mxCell id="RN7CYTBWNOi0pQPH-gGi-15" style="edgeStyle=orthogonalEdgeStyle;rounded=0;orthogonalLoop=1;jettySize=auto;html=1;entryX=0;entryY=0.5;entryDx=0;entryDy=0;" edge="1" parent="1" source="RN7CYTBWNOi0pQPH-gGi-4" target="RN7CYTBWNOi0pQPH-gGi-5">
          <mxGeometry relative="1" as="geometry">
            <Array as="points">
              <mxPoint x="560" y="530" />
              <mxPoint x="560" y="415" />
            </Array>
          </mxGeometry>
        </mxCell>
        <mxCell id="RN7CYTBWNOi0pQPH-gGi-17" style="edgeStyle=orthogonalEdgeStyle;rounded=0;orthogonalLoop=1;jettySize=auto;html=1;entryX=0;entryY=0.5;entryDx=0;entryDy=0;" edge="1" parent="1" source="RN7CYTBWNOi0pQPH-gGi-4" target="RN7CYTBWNOi0pQPH-gGi-6">
          <mxGeometry relative="1" as="geometry">
            <Array as="points">
              <mxPoint x="560" y="530" />
              <mxPoint x="560" y="615" />
            </Array>
          </mxGeometry>
        </mxCell>
        <mxCell id="RN7CYTBWNOi0pQPH-gGi-4" value="View" style="rounded=1;whiteSpace=wrap;html=1;" vertex="1" parent="1">
          <mxGeometry x="400" y="500" width="120" height="60" as="geometry" />
        </mxCell>
        <mxCell id="RN7CYTBWNOi0pQPH-gGi-16" style="edgeStyle=orthogonalEdgeStyle;rounded=0;orthogonalLoop=1;jettySize=auto;html=1;" edge="1" parent="1" source="RN7CYTBWNOi0pQPH-gGi-5">
          <mxGeometry relative="1" as="geometry">
            <mxPoint x="520" y="530" as="targetPoint" />
            <Array as="points">
              <mxPoint x="560" y="415" />
              <mxPoint x="560" y="530" />
            </Array>
          </mxGeometry>
        </mxCell>
        <mxCell id="RN7CYTBWNOi0pQPH-gGi-18" style="edgeStyle=orthogonalEdgeStyle;rounded=0;orthogonalLoop=1;jettySize=auto;html=1;" edge="1" parent="1" source="RN7CYTBWNOi0pQPH-gGi-5" target="RN7CYTBWNOi0pQPH-gGi-8">
          <mxGeometry relative="1" as="geometry" />
        </mxCell>
        <mxCell id="RN7CYTBWNOi0pQPH-gGi-5" value="Model" style="rounded=1;whiteSpace=wrap;html=1;" vertex="1" parent="1">
          <mxGeometry x="590" y="385" width="120" height="60" as="geometry" />
        </mxCell>
        <mxCell id="RN7CYTBWNOi0pQPH-gGi-6" value="Template" style="rounded=1;whiteSpace=wrap;html=1;" vertex="1" parent="1">
          <mxGeometry x="590" y="585" width="120" height="60" as="geometry" />
        </mxCell>
        <mxCell id="RN7CYTBWNOi0pQPH-gGi-7" value="User" style="text;html=1;align=center;verticalAlign=middle;whiteSpace=wrap;rounded=0;" vertex="1" parent="1">
          <mxGeometry x="60" y="440" width="60" height="30" as="geometry" />
        </mxCell>
        <mxCell id="RN7CYTBWNOi0pQPH-gGi-19" style="edgeStyle=orthogonalEdgeStyle;rounded=0;orthogonalLoop=1;jettySize=auto;html=1;entryX=1;entryY=0.5;entryDx=0;entryDy=0;" edge="1" parent="1" source="RN7CYTBWNOi0pQPH-gGi-8" target="RN7CYTBWNOi0pQPH-gGi-5">
          <mxGeometry relative="1" as="geometry" />
        </mxCell>
        <mxCell id="RN7CYTBWNOi0pQPH-gGi-8" value="Data" style="shape=cylinder3;whiteSpace=wrap;html=1;boundedLbl=1;backgroundOutline=1;size=15;" vertex="1" parent="1">
          <mxGeometry x="780" y="375" width="60" height="80" as="geometry" />
        </mxCell>
        <mxCell id="RN7CYTBWNOi0pQPH-gGi-9" style="edgeStyle=orthogonalEdgeStyle;rounded=0;orthogonalLoop=1;jettySize=auto;html=1;entryX=0;entryY=0.5;entryDx=0;entryDy=0;entryPerimeter=0;" edge="1" parent="1" source="RN7CYTBWNOi0pQPH-gGi-1" target="RN7CYTBWNOi0pQPH-gGi-2">
          <mxGeometry relative="1" as="geometry" />
        </mxCell>
        <mxCell id="RN7CYTBWNOi0pQPH-gGi-11" style="edgeStyle=orthogonalEdgeStyle;rounded=0;orthogonalLoop=1;jettySize=auto;html=1;entryX=0.403;entryY=0.022;entryDx=0;entryDy=0;entryPerimeter=0;" edge="1" parent="1" source="RN7CYTBWNOi0pQPH-gGi-2" target="RN7CYTBWNOi0pQPH-gGi-3">
          <mxGeometry relative="1" as="geometry" />
        </mxCell>
        <mxCell id="RN7CYTBWNOi0pQPH-gGi-12" style="edgeStyle=orthogonalEdgeStyle;rounded=0;orthogonalLoop=1;jettySize=auto;html=1;entryX=0.5;entryY=1;entryDx=0;entryDy=0;entryPerimeter=0;" edge="1" parent="1" source="RN7CYTBWNOi0pQPH-gGi-3" target="RN7CYTBWNOi0pQPH-gGi-2">
          <mxGeometry relative="1" as="geometry">
            <Array as="points">
              <mxPoint x="239" y="480" />
              <mxPoint x="239" y="480" />
            </Array>
          </mxGeometry>
        </mxCell>
      </root>
    </mxGraphModel>
  </diagram>
</mxfile>
